{
  "accessors": [
    {
      "bufferView": 2,
      "componentType": 5126,
      "count": 50896,
      "max": [
        101.06501770019531,
        222.29315185546875,
        99.9613037109375
      ],
      "min": [
        -325.68316650390625,
        -157.19937133789063,
        -462.2658996582031
      ],
      "type": "VEC3"
    },
    {
      "bufferView": 2,
      "byteOffset": 610752,
      "componentType": 5126,
      "count": 50896,
      "max": [
        0.9999635219573975,
        0.9999845027923584,
        0.9999228715896606
      ],
      "min": [
        -0.9999717473983765,
        -0.9999532103538513,
        -0.999983549118042
      ],
      "type": "VEC3"
    },
    {
      "bufferView": 3,
      "componentType": 5126,
      "count": 50896,
      "max": [
        0.9999675154685974,
        0.9999487400054932,
        0.9999884366989136,
        1.0
      ],
      "min": [
        -0.9999746680259705,
        -0.999985933303833,
        -0.9999110102653503,
        -1.0
      ],
      "type": "VEC4"
    },
    {
      "bufferView": 1,
      "componentType": 5126,
      "count": 50896,
      "max": [
        0.9993079900741577,
        0.9835249781608582
      ],
      "min": [
        0.0,
        0.0
      ],
      "type": "VEC2"
    },
    {
      "bufferView": 0,
      "componentType": 5125,
      "count": 291516,
      "type": "SCALAR"
    }
  ],
  "asset": {
    "extras": {
      "author": "lavakongen (https://sketchfab.com/lavakongen)",
      "license": "CC-BY-4.0 (http://creativecommons.org/licenses/by/4.0/)",
      "source": "https://sketchfab.com/3d-models/stylized-clouds-e326c36890364526910cba03c1393ebc",
      "title": "Stylized clouds"
    },
    "generator": "Sketchfab-13.31.0",
    "version": "2.0"
  },
  "bufferViews": [
    {
      "buffer": 0,
      "byteLength": 1166064,
      "name": "floatBufferViews",
      "target": 34963
    },
    {
      "buffer": 0,
      "byteLength": 407168,
      "byteOffset": 1166064,
      "byteStride": 8,
      "name": "floatBufferViews",
      "target": 34962
    },
    {
      "buffer": 0,
      "byteLength": 1221504,
      "byteOffset": 1573232,
      "byteStride": 12,
      "name": "floatBufferViews",
      "target": 34962
    },
    {
      "buffer": 0,
      "byteLength": 814336,
      "byteOffset": 2794736,
      "byteStride": 16,
      "name": "floatBufferViews",
      "target": 34962
    }
  ],
  "buffers": [
    {
      "byteLength": 3609072,
      "uri": "scene.bin"
    }
  ],
  "extensionsUsed": [
    "KHR_materials_clearcoat"
  ],
  "images": [
    {
      "uri": "textures/base1_baseColor.jpeg"
    },
    {
      "uri": "textures/base1_metallicRoughness.png"
    },
    {
      "uri": "textures/base1_emissive.jpeg"
    },
    {
      "uri": "textures/base1_normal.png"
    }
  ],
  "materials": [
    {
      "doubleSided": true,
      "emissiveFactor": [
        1.0,
        1.0,
        1.0
      ],
      "emissiveTexture": {
        "index": 2
      },
      "extensions": {
        "KHR_materials_clearcoat": {
          "clearcoatFactor": 0.1386670892711292,
          "clearcoatRoughnessFactor": 0.0
        }
      },
      "name": "base1",
      "normalTexture": {
        "index": 3
      },
      "occlusionTexture": {
        "index": 1
      },
      "pbrMetallicRoughness": {
        "baseColorTexture": {
          "index": 0
        },
        "metallicRoughnessTexture": {
          "index": 1
        }
      }
    }
  ],
  "meshes": [
    {
      "name": "defaultMaterial",
      "primitives": [
        {
          "attributes": {
            "NORMAL": 1,
            "POSITION": 0,
            "TANGENT": 2,
            "TEXCOORD_0": 3
          },
          "indices": 4,
          "material": 0,
          "mode": 4
        }
      ]
    }
  ],
  "nodes": [
    {
      "children": [
        1
      ],
      "matrix": [
        0.03608298674225807,
        0.0,
        0.0,
        0.0,
        0.0,
        8.012032535699836e-18,
        -0.03608298674225807,
        0.0,
        0.0,
        0.03608298674225807,
        8.012032535699836e-18,
        0.0,
        0.0,
        0.0,
        0.0,
        1.0
      ],
      "name": "Sketchfab_model"
    },
    {
      "children": [
        2
      ],
      "matrix": [
        1.0,
        0.0,
        0.0,
        0.0,
        0.0,
        -4.371139006309477e-08,
        0.999999999999999,
        0.0,
        0.0,
        -0.999999999999999,
        -4.371139006309477e-08,
        0.0,
        0.0,
        0.0,
        0.0,
        1.0
      ],
      "name": "Collada visual scene group"
    },
    {
      "children": [
        3
      ],
      "name": "base1"
    },
    {
      "mesh": 0,
      "name": "defaultMaterial"
    }
  ],
  "samplers": [
    {
      "magFilter": 9729,
      "minFilter": 9987,
      "wrapS": 10497,
      "wrapT": 10497
    }
  ],
  "scene": 0,
  "scenes": [
    {
      "name": "Sketchfab_Scene",
      "nodes": [
        0
      ]
    }
  ],
  "textures": [
    {
      "sampler": 0,
      "source": 0
    },
    {
      "sampler": 0,
      "source": 1
    },
    {
      "sampler": 0,
      "source": 2
    },
    {
      "sampler": 0,
      "source": 3
    }
  ]
}
