{
  "accessors": [
    {
      "bufferView": 1,
      "componentType": 5126,
      "count": 1272,
      "max": [
        3.411743640899658,
        1.5346968173980713,
        1.9978379011154175
      ],
      "min": [
        -0.9564659595489502,
        -1.503125548362732,
        -1.0982670783996582
      ],
      "type": "VEC3"
    },
    {
      "bufferView": 1,
      "byteOffset": 15264,
      "componentType": 5126,
      "count": 1272,
      "max": [
        0.9976266622543335,
        0.9978407025337219,
        0.9973680377006531
      ],
      "min": [
        -0.9901248812675476,
        -0.9999167323112488,
        -0.9993497729301453
      ],
      "type": "VEC3"
    },
    {
      "bufferView": 0,
      "componentType": 5125,
      "count": 7620,
      "type": "SCALAR"
    }
  ],
  "asset": {
    "extras": {
      "author": "amftwg (https://sketchfab.com/amftwg)",
      "license": "CC-BY-4.0 (http://creativecommons.org/licenses/by/4.0/)",
      "source": "https://sketchfab.com/3d-models/stylized-cloud-5002a16c54c54a5d89ffb8f0b299b724",
      "title": "Stylized Cloud"
    },
    "generator": "Sketchfab-13.68.0",
    "version": "2.0"
  },
  "bufferViews": [
    {
      "buffer": 0,
      "byteLength": 30480,
      "name": "floatBufferViews",
      "target": 34963
    },
    {
      "buffer": 0,
      "byteLength": 30528,
      "byteOffset": 30480,
      "byteStride": 12,
      "name": "floatBufferViews",
      "target": 34962
    }
  ],
  "buffers": [
    {
      "byteLength": 61008,
      "uri": "scene.bin"
    }
  ],
  "materials": [
    {
      "doubleSided": true,
      "name": "Scene_-_Root",
      "pbrMetallicRoughness": {
        "metallicFactor": 0.0,
        "roughnessFactor": 0.0
      }
    }
  ],
  "meshes": [
    {
      "name": "Cloud__0",
      "primitives": [
        {
          "attributes": {
            "NORMAL": 1,
            "POSITION": 0
          },
          "indices": 2,
          "material": 0,
          "mode": 4
        }
      ]
    }
  ],
  "nodes": [
    {
      "children": [
        1
      ],
      "matrix": [
        1.0,
        0.0,
        0.0,
        0.0,
        0.0,
        2.220446049250313e-16,
        -1.0,
        0.0,
        0.0,
        1.0,
        2.220446049250313e-16,
        0.0,
        0.0,
        0.0,
        0.0,
        1.0
      ],
      "name": "Sketchfab_model"
    },
    {
      "children": [
        2
      ],
      "matrix": [
        0.009999999776482582,
        0.0,
        0.0,
        0.0,
        0.0,
        0.0,
        0.009999999776482582,
        0.0,
        0.0,
        -0.009999999776482582,
        0.0,
        0.0,
        0.0,
        0.0,
        0.0,
        1.0
      ],
      "name": "366a21b32a984800abbe9c8121b0c211.fbx"
    },
    {
      "children": [
        3
      ],
      "name": "RootNode"
    },
    {
      "children": [
        4
      ],
      "matrix": [
        81.54560089111328,
        0.0,
        0.0,
        0.0,
        -0.0,
        -1.3285464698595309e-05,
        -81.5456008911122,
        0.0,
        0.0,
        81.5456008911122,
        -1.3285464698595309e-05,
        0.0,
        -96.39708709716797,
        0.0,
        0.0,
        1.0
      ],
      "name": "Cloud"
    },
    {
      "mesh": 0,
      "name": "Cloud__0"
    }
  ],
  "scene": 0,
  "scenes": [
    {
      "name": "Sketchfab_Scene",
      "nodes": [
        0
      ]
    }
  ]
}
