{
    "asset" : {
        "generator" : "Khronos glTF Blender I/O v3.2.43",
        "version" : "2.0"
    },
    "scene" : 0,
    "scenes" : [
        {
            "name" : "Scene",
            "nodes" : [
                2
            ]
        }
    ],
    "nodes" : [
        {
            "mesh" : 0,
            "name" : "Object_2",
            "translation" : [
                0.7972513437271118,
                -1.3456555604934692,
                -0.048424363136291504
            ]
        },
        {
            "children" : [
                0
            ],
            "name" : "cloudsculpt2.obj.cleaner.materialmerger.gles"
        },
        {
            "children" : [
                1
            ],
            "name" : "Sketchfab_model",
            "rotation" : [
                -0.7071068286895752,
                0,
                0,
                0.7071067094802856
            ]
        }
    ],
    "materials" : [
        {
            "doubleSided" : true,
            "name" : "Material.001",
            "pbrMetallicRoughness" : {
                "metallicFactor" : 0,
                "roughnessFactor" : 0.6000000238418579
            }
        }
    ],
    "meshes" : [
        {
            "name" : "Object_0",
            "primitives" : [
                {
                    "attributes" : {
                        "POSITION" : 0,
                        "NORMAL" : 1
                    },
                    "indices" : 2,
                    "material" : 0
                }
            ]
        }
    ],
    "accessors" : [
        {
            "bufferView" : 0,
            "componentType" : 5126,
            "count" : 24578,
            "max" : [
                5.278324604034424,
                4.927910327911377,
                3.619319438934326
            ],
            "min" : [
                -5.135271072387695,
                -4.994276523590088,
                -3.14107084274292
            ],
            "type" : "VEC3"
        },
        {
            "bufferView" : 1,
            "componentType" : 5126,
            "count" : 24578,
            "type" : "VEC3"
        },
        {
            "bufferView" : 2,
            "componentType" : 5123,
            "count" : 147456,
            "type" : "SCALAR"
        }
    ],
    "bufferViews" : [
        {
            "buffer" : 0,
            "byteLength" : 294936,
            "byteOffset" : 0
        },
        {
            "buffer" : 0,
            "byteLength" : 294936,
            "byteOffset" : 294936
        },
        {
            "buffer" : 0,
            "byteLength" : 294912,
            "byteOffset" : 589872
        }
    ],
    "buffers" : [
        {
            "byteLength" : 884784,
            "uri" : "data:application/octet-stream;base64,"
        }
    ]
}
