{
  "accessors": [
    {
      "bufferView": 1,
      "componentType": 5126,
      "count": 1154,
      "max": [
        2.8903298377990723,
        4.204762935638428,
        1.1616483926773071
      ],
      "min": [
        -1.46822988986969,
        -0.3433496654033661,
        -4.816165924072266
      ],
      "type": "VEC3"
    },
    {
      "bufferView": 1,
      "byteOffset": 13848,
      "componentType": 5126,
      "count": 1154,
      "max": [
        0.9989158511161804,
        0.9998387098312378,
        0.9975302815437317
      ],
      "min": [
        -0.999060869216919,
        -0.9993993043899536,
        -0.999205470085144
      ],
      "type": "VEC3"
    },
    {
      "bufferView": 0,
      "componentType": 5125,
      "count": 6912,
      "type": "SCALAR"
    },
    {
      "bufferView": 1,
      "byteOffset": 27696,
      "componentType": 5126,
      "count": 1154,
      "max": [
        1.8929945230484009,
        4.075679779052734,
        0.9828721284866333
      ],
      "min": [
        -1.8025703430175781,
        -0.38985496759414673,
        -5.721965789794922
      ],
      "type": "VEC3"
    },
    {
      "bufferView": 1,
      "byteOffset": 41544,
      "componentType": 5126,
      "count": 1154,
      "max": [
        0.999199390411377,
        0.999823808670044,
        0.9989245533943176
      ],
      "min": [
        -0.9995750188827515,
        -0.9991179704666138,
        -0.998232901096344
      ],
      "type": "VEC3"
    },
    {
      "bufferView": 0,
      "byteOffset": 27648,
      "componentType": 5125,
      "count": 6912,
      "type": "SCALAR"
    },
    {
      "bufferView": 1,
      "byteOffset": 55392,
      "componentType": 5126,
      "count": 1154,
      "max": [
        2.7227277755737305,
        4.379744052886963,
        1.2010033130645752
      ],
      "min": [
        -1.6496847867965698,
        -0.36623522639274597,
        -5.235382080078125
      ],
      "type": "VEC3"
    },
    {
      "bufferView": 1,
      "byteOffset": 69240,
      "componentType": 5126,
      "count": 1154,
      "max": [
        0.9940701127052307,
        0.9996191263198853,
        0.9978465437889099
      ],
      "min": [
        -0.998141348361969,
        -0.9992434978485107,
        -0.9988359212875366
      ],
      "type": "VEC3"
    },
    {
      "bufferView": 0,
      "byteOffset": 55296,
      "componentType": 5125,
      "count": 6912,
      "type": "SCALAR"
    }
  ],
  "asset": {
    "extras": {
      "author": "ragad.sallabi (https://sketchfab.com/ragad.sallabi)",
      "license": "CC-BY-4.0 (http://creativecommons.org/licenses/by/4.0/)",
      "source": "https://sketchfab.com/3d-models/stylize-clouds-32ed464f19fe4acf86723eaff08dd568",
      "title": "stylize clouds"
    },
    "generator": "Sketchfab-12.68.0",
    "version": "2.0"
  },
  "bufferViews": [
    {
      "buffer": 0,
      "byteLength": 82944,
      "name": "floatBufferViews",
      "target": 34963
    },
    {
      "buffer": 0,
      "byteLength": 83088,
      "byteOffset": 82944,
      "byteStride": 12,
      "name": "floatBufferViews",
      "target": 34962
    }
  ],
  "buffers": [
    {
      "byteLength": 166032,
      "uri": "scene.bin"
    }
  ],
  "materials": [
    {
      "doubleSided": true,
      "name": "normal"
    }
  ],
  "meshes": [
    {
      "name": "Object_0",
      "primitives": [
        {
          "attributes": {
            "NORMAL": 1,
            "POSITION": 0
          },
          "indices": 2,
          "material": 0,
          "mode": 4
        }
      ]
    },
    {
      "name": "Object_1",
      "primitives": [
        {
          "attributes": {
            "NORMAL": 4,
            "POSITION": 3
          },
          "indices": 5,
          "material": 0,
          "mode": 4
        }
      ]
    },
    {
      "name": "Object_2",
      "primitives": [
        {
          "attributes": {
            "NORMAL": 7,
            "POSITION": 6
          },
          "indices": 8,
          "material": 0,
          "mode": 4
        }
      ]
    }
  ],
  "nodes": [
    {
      "children": [
        1
      ],
      "matrix": [
        1.0,
        0.0,
        0.0,
        0.0,
        0.0,
        2.220446049250313e-16,
        -1.0,
        0.0,
        0.0,
        1.0,
        2.220446049250313e-16,
        0.0,
        0.0,
        0.0,
        0.0,
        1.0
      ],
      "name": "Sketchfab_model"
    },
    {
      "children": [
        2
      ],
      "name": "root"
    },
    {
      "children": [
        3,
        5,
        7
      ],
      "matrix": [
        1.0,
        0.0,
        0.0,
        0.0,
        0.0,
        2.220446049250313e-16,
        1.0,
        0.0,
        0.0,
        -1.0,
        2.220446049250313e-16,
        0.0,
        0.0,
        0.0,
        0.0,
        1.0
      ],
      "name": "GLTF_SceneRootNode"
    },
    {
      "children": [
        4
      ],
      "matrix": [
        1.0,
        0.0,
        0.0,
        0.0,
        0.0,
        1.0,
        0.0,
        0.0,
        0.0,
        0.0,
        1.0,
        0.0,
        0.3396485149860382,
        0.13626354932785034,
        -3.5259478092193604,
        1.0
      ],
      "name": "Cube_4"
    },
    {
      "mesh": 0,
      "name": "Object_4"
    },
    {
      "children": [
        6
      ],
      "matrix": [
        1.0,
        0.0,
        0.0,
        0.0,
        0.0,
        1.0,
        0.0,
        0.0,
        0.0,
        0.0,
        1.0,
        0.0,
        1.677868127822876,
        2.580679178237915,
        -11.413639068603516,
        1.0
      ],
      "name": "Cube.001_5"
    },
    {
      "mesh": 1,
      "name": "Object_6"
    },
    {
      "children": [
        8
      ],
      "matrix": [
        1.0,
        0.0,
        0.0,
        0.0,
        0.0,
        1.0,
        0.0,
        0.0,
        0.0,
        0.0,
        1.0,
        0.0,
        0.6972669363021851,
        -6.64003849029541,
        -8.80180835723877,
        1.0
      ],
      "name": "Cube.002_6"
    },
    {
      "mesh": 2,
      "name": "Object_8"
    }
  ],
  "scene": 0,
  "scenes": [
    {
      "name": "Sketchfab_Scene",
      "nodes": [
        0
      ]
    }
  ]
}
